<svg width="56" height="63" viewBox="0 0 56 63" fill="none" xmlns="http://www.w3.org/2000/svg">
<path d="M3.65188 14.8923L25.8466 2.07639C27.1789 1.30799 28.818 1.3078 30.1507 2.07604C30.1508 2.07611 30.1509 2.07618 30.151 2.07625C30.1512 2.07631 30.1513 2.07637 30.1514 2.07644L52.3481 14.8925C53.6809 15.6624 54.5 17.082 54.5 18.6187L54.5 44.2503C54.5 45.7864 53.6811 47.2059 52.3476 47.9769L30.1513 60.7918C30.1511 60.7919 30.1509 60.792 30.1507 60.7921C28.8182 61.5604 27.1794 61.5603 25.8472 60.7921C25.8471 60.792 25.8469 60.7919 25.8467 60.7918L3.6523 47.9769C2.31883 47.2059 1.5 45.7865 1.5 44.2503L1.5 18.6185C1.5 17.082 2.31902 15.6623 3.65188 14.8923Z" fill="#FEFEFE" fill-opacity="0.92" stroke="#470898" stroke-width="3"/>
<path d="M27.5 37.9688C30.5203 37.9688 32.9688 35.5203 32.9688 32.5C32.9688 29.4797 30.5203 27.0312 27.5 27.0312C24.4797 27.0312 22.0312 29.4797 22.0312 32.5C22.0312 35.5203 24.4797 37.9688 27.5 37.9688Z" stroke="#5902C7" stroke-width="2.91667" stroke-miterlimit="10"/>
<path d="M33.5156 19.9219H21.4844C17.86 19.9219 14.9219 22.86 14.9219 26.4844V38.5156C14.9219 42.14 17.86 45.0781 21.4844 45.0781H33.5156C37.14 45.0781 40.0781 42.14 40.0781 38.5156V26.4844C40.0781 22.86 37.14 19.9219 33.5156 19.9219Z" stroke="#5902C7" stroke-width="2.91667" stroke-linecap="round" stroke-linejoin="round"/>
<path d="M34.6094 27.0312C35.5155 27.0312 36.25 26.2967 36.25 25.3906C36.25 24.4845 35.5155 23.75 34.6094 23.75C33.7033 23.75 32.9688 24.4845 32.9688 25.3906C32.9688 26.2967 33.7033 27.0312 34.6094 27.0312Z" fill="#5902C7"/>
</svg>
