<svg width="56" height="63" viewBox="0 0 56 63" fill="none" xmlns="http://www.w3.org/2000/svg">
<path d="M3.65188 14.8923L25.8466 2.07639C27.1789 1.30799 28.818 1.3078 30.1507 2.07604C30.1508 2.07611 30.1509 2.07618 30.151 2.07625C30.1512 2.07631 30.1513 2.07637 30.1514 2.07644L52.3481 14.8925C53.6809 15.6624 54.5 17.082 54.5 18.6187L54.5 44.2503C54.5 45.7864 53.6811 47.2059 52.3476 47.9769L30.1513 60.7918C30.1511 60.7919 30.1509 60.792 30.1507 60.7921C28.8182 61.5604 27.1794 61.5603 25.8472 60.7921C25.8471 60.792 25.8469 60.7919 25.8467 60.7918L3.6523 47.9769C2.31883 47.2059 1.5 45.7865 1.5 44.2503L1.5 18.6185C1.5 17.082 2.31902 15.6623 3.65188 14.8923Z" fill="#FEFEFE" fill-opacity="0.92" stroke="#470898" stroke-width="3"/>
<path d="M17.207 37.1993C15.5786 34.4518 15.0089 31.2044 15.6051 28.0667C16.2013 24.9289 17.9222 22.1167 20.4449 20.158C22.9676 18.1992 26.1185 17.2286 29.3061 17.4284C32.4937 17.6282 35.4987 18.9846 37.7571 21.2429C40.0155 23.5013 41.3719 26.5064 41.5716 29.694C41.7714 32.8816 40.8008 36.0325 38.8421 38.5551C36.8833 41.0778 34.0711 42.7988 30.9334 43.3949C27.7957 43.9911 24.5483 43.4215 21.8008 41.793V41.793L17.2617 43.0782C17.0758 43.1326 16.8786 43.1359 16.6909 43.0879C16.5031 43.0399 16.3318 42.9423 16.1948 42.8053C16.0578 42.6682 15.9602 42.4969 15.9121 42.3092C15.8641 42.1215 15.8675 41.9243 15.9219 41.7383L17.207 37.1993Z" stroke="#5902C8" stroke-width="2" stroke-linecap="round" stroke-linejoin="round"/>
<path d="M31.795 38.1563C30.3558 38.1599 28.9301 37.8791 27.5999 37.33C26.2696 36.7809 25.0609 35.9744 24.0433 34.9568C23.0256 33.9392 22.2191 32.7305 21.67 31.4002C21.121 30.0699 20.8402 28.6442 20.8438 27.2051C20.8474 26.1922 21.2523 25.222 21.9698 24.507C22.6874 23.7921 23.659 23.3906 24.6719 23.3907V23.3907C24.839 23.3893 25.0034 23.4331 25.1478 23.5173C25.2921 23.6015 25.4111 23.723 25.4922 23.8692L27.0918 26.6582C27.187 26.8278 27.2358 27.0194 27.2334 27.2138C27.231 27.4082 27.1774 27.5985 27.0782 27.7657L25.793 29.9121C26.4513 31.3765 27.6235 32.5488 29.0879 33.2071L31.2344 31.9219C31.4016 31.8226 31.5919 31.7691 31.7863 31.7667C31.9807 31.7643 32.1723 31.8131 32.3418 31.9082L35.1309 33.5078C35.277 33.5889 35.3986 33.7079 35.4828 33.8523C35.567 33.9966 35.6107 34.161 35.6094 34.3282C35.6058 35.34 35.2032 36.3095 34.4891 37.0263C33.7749 37.743 32.8068 38.1491 31.795 38.1563V38.1563Z" stroke="#5902C8" stroke-width="2" stroke-linecap="round" stroke-linejoin="round"/>
</svg>
