<svg width="60" height="67" viewBox="0 0 60 67" fill="none" xmlns="http://www.w3.org/2000/svg">
<path d="M40.076 27.2514C35.6131 18.3183 20.5764 20.2841 18.4286 30.0976C17.1327 36.0192 22.5971 40.1632 23.3029 45.7085H35.8297C36.1981 44.2257 36.9475 42.4622 37.4665 41.3783C38.5451 39.1265 40.0707 37.6546 40.65 35.1424C41.2011 32.752 41.1373 29.3762 40.076 27.2514Z" stroke="#FDFCFE" stroke-width="3.07997" stroke-miterlimit="1.5" stroke-linecap="round" stroke-linejoin="round"/>
<path fill-rule="evenodd" clip-rule="evenodd" d="M23.073 53.2657C23.0694 51.5546 22.9855 49.8436 23.0152 48.133C23.0269 47.4556 22.9112 46.6271 23.4975 46.1535C24.3535 45.4623 25.6269 45.3616 26.6893 45.336C28.6804 45.2884 30.687 45.3052 32.6802 45.3093C33.5879 45.3108 34.9427 45.1532 35.7609 45.6043C36.5396 46.0328 36.7367 47.201 36.8243 47.99C36.9922 49.5019 37.4392 52.8781 36.1556 54.0485C35.3472 54.7858 34.0861 54.94 33.0509 55.0675C30.3045 55.4054 23.0771 55.3383 23.073 53.2657Z" stroke="#FDFCFE" stroke-width="3.07997" stroke-miterlimit="1.5" stroke-linecap="round" stroke-linejoin="round"/>
<path d="M30.3925 55.213C30.4149 56.1442 30.4259 57.0803 30.3526 58.0101" stroke="#FDFCFE" stroke-width="3.07997" stroke-miterlimit="1.5" stroke-linecap="round" stroke-linejoin="round"/>
<path d="M8.67343 40.9962C9.6505 40.4805 10.6709 40.0563 11.6584 39.563" stroke="#FDFCFE" stroke-width="3.07997" stroke-miterlimit="1.5" stroke-linecap="round" stroke-linejoin="round"/>
<path d="M8.67343 20.9545C9.7641 21.647 10.8074 22.4124 11.9006 23.099" stroke="#FDFCFE" stroke-width="3.07997" stroke-miterlimit="1.5" stroke-linecap="round" stroke-linejoin="round"/>
<path d="M30.2014 12.7452C30.1631 11.3735 30.1715 10.0117 30.2154 8.6405" stroke="#FDFCFE" stroke-width="3.07997" stroke-miterlimit="1.5" stroke-linecap="round" stroke-linejoin="round"/>
<path d="M47.0858 22.089C48.455 21.1827 49.865 20.3312 51.2577 19.4613" stroke="#FDFCFE" stroke-width="3.07997" stroke-miterlimit="1.5" stroke-linecap="round" stroke-linejoin="round"/>
<path d="M44.6967 40.7805C45.7525 41.7267 46.8128 42.6619 47.8347 43.645" stroke="#FDFCFE" stroke-width="3.07997" stroke-miterlimit="1.5" stroke-linecap="round" stroke-linejoin="round"/>
<g filter="url(#filter0_f_406_112)">
<path d="M40.076 27.2514C35.6131 18.3183 20.5764 20.2841 18.4286 30.0976C17.1327 36.0192 22.5971 40.1632 23.3029 45.7085H35.8297C36.1981 44.2257 36.9475 42.4622 37.4665 41.3783C38.5451 39.1265 40.0707 37.6546 40.65 35.1424C41.2011 32.752 41.1373 29.3762 40.076 27.2514Z" stroke="#FDFCFE" stroke-opacity="0.21" stroke-width="3.07997" stroke-miterlimit="1.5" stroke-linecap="round" stroke-linejoin="round"/>
<path fill-rule="evenodd" clip-rule="evenodd" d="M23.073 53.2657C23.0694 51.5546 22.9855 49.8436 23.0152 48.133C23.0269 47.4556 22.9112 46.6271 23.4975 46.1535C24.3535 45.4623 25.6269 45.3616 26.6893 45.336C28.6804 45.2884 30.687 45.3052 32.6802 45.3093C33.5879 45.3108 34.9427 45.1532 35.7609 45.6043C36.5396 46.0328 36.7367 47.201 36.8243 47.99C36.9922 49.5019 37.4392 52.8781 36.1556 54.0485C35.3472 54.7858 34.0861 54.94 33.0509 55.0675C30.3045 55.4054 23.0771 55.3383 23.073 53.2657Z" stroke="#FDFCFE" stroke-opacity="0.21" stroke-width="3.07997" stroke-miterlimit="1.5" stroke-linecap="round" stroke-linejoin="round"/>
<path d="M30.3925 55.213C30.4149 56.1442 30.4259 57.0803 30.3526 58.0101" stroke="#FDFCFE" stroke-opacity="0.21" stroke-width="3.07997" stroke-miterlimit="1.5" stroke-linecap="round" stroke-linejoin="round"/>
<path d="M8.67343 40.9962C9.6505 40.4805 10.6709 40.0563 11.6584 39.563" stroke="#FDFCFE" stroke-opacity="0.21" stroke-width="3.07997" stroke-miterlimit="1.5" stroke-linecap="round" stroke-linejoin="round"/>
<path d="M8.67343 20.9545C9.7641 21.647 10.8074 22.4124 11.9006 23.099" stroke="#FDFCFE" stroke-opacity="0.21" stroke-width="3.07997" stroke-miterlimit="1.5" stroke-linecap="round" stroke-linejoin="round"/>
<path d="M30.2014 12.7452C30.1631 11.3735 30.1715 10.0117 30.2154 8.6405" stroke="#FDFCFE" stroke-opacity="0.21" stroke-width="3.07997" stroke-miterlimit="1.5" stroke-linecap="round" stroke-linejoin="round"/>
<path d="M47.0858 22.089C48.455 21.1827 49.865 20.3312 51.2577 19.4613" stroke="#FDFCFE" stroke-opacity="0.21" stroke-width="3.07997" stroke-miterlimit="1.5" stroke-linecap="round" stroke-linejoin="round"/>
<path d="M44.6967 40.7805C45.7525 41.7267 46.8128 42.6619 47.8347 43.645" stroke="#FDFCFE" stroke-opacity="0.21" stroke-width="3.07997" stroke-miterlimit="1.5" stroke-linecap="round" stroke-linejoin="round"/>
</g>
<defs>
<filter id="filter0_f_406_112" x="-4.84473" y="-1.43945" width="69.4395" height="69.4395" filterUnits="userSpaceOnUse" color-interpolation-filters="sRGB">
<feFlood flood-opacity="0" result="BackgroundImageFix"/>
<feBlend mode="normal" in="SourceGraphic" in2="BackgroundImageFix" result="shape"/>
<feGaussianBlur stdDeviation="3.5" result="effect1_foregroundBlur_406_112"/>
</filter>
</defs>
</svg>
