<svg width="100" height="100" viewBox="0 0 100 100" fill="none" xmlns="http://www.w3.org/2000/svg">
<circle cx="50" cy="50" r="50" transform="matrix(-1 0 0 1 100 0)" fill="url(#paint0_linear_410_182)"/>
<path d="M69.1937 63.3687C69.1937 64.0437 69.0437 64.7375 68.725 65.4125C68.4062 66.0875 67.9938 66.725 67.45 67.325C66.5313 68.3375 65.5187 69.0688 64.375 69.5375C63.25 70.0063 62.0313 70.25 60.7188 70.25C58.8063 70.25 56.7625 69.8 54.6062 68.8813C52.45 67.9625 50.2937 66.725 48.1562 65.1688C46 63.5938 43.9562 61.85 42.0062 59.9187C40.075 57.9687 38.3312 55.925 36.775 53.7875C35.2375 51.65 34 49.5125 33.1 47.3938C32.2 45.2563 31.75 43.2125 31.75 41.2625C31.75 39.9875 31.975 38.7688 32.425 37.6438C32.875 36.5 33.5875 35.45 34.5812 34.5125C35.7812 33.3313 37.0938 32.75 38.4813 32.75C39.0063 32.75 39.5313 32.8625 40 33.0875C40.4875 33.3125 40.9188 33.65 41.2563 34.1375L45.6063 40.2688C45.9438 40.7375 46.1875 41.1688 46.3562 41.5813C46.525 41.975 46.6188 42.3688 46.6188 42.725C46.6188 43.175 46.4875 43.625 46.225 44.0562C45.9813 44.4875 45.625 44.9375 45.175 45.3875L43.75 46.8687C43.5437 47.075 43.45 47.3188 43.45 47.6188C43.45 47.7688 43.4688 47.9 43.5063 48.05C43.5625 48.2 43.6188 48.3125 43.6563 48.425C43.9938 49.0437 44.575 49.85 45.4 50.825C46.2437 51.8 47.1437 52.7938 48.1187 53.7875C49.1312 54.7813 50.1062 55.7 51.1 56.5437C52.075 57.3687 52.8812 57.9312 53.5187 58.2687C53.6125 58.3062 53.725 58.3625 53.8562 58.4187C54.0062 58.475 54.1562 58.4937 54.325 58.4937C54.6437 58.4937 54.8875 58.3813 55.0937 58.175L56.5188 56.7688C56.9875 56.3 57.4375 55.9437 57.8688 55.7188C58.3 55.4562 58.7312 55.325 59.2 55.325C59.5562 55.325 59.9313 55.4 60.3438 55.5688C60.7562 55.7375 61.1875 55.9813 61.6563 56.3L67.8625 60.7062C68.35 61.0437 68.6875 61.4375 68.8937 61.9062C69.0812 62.375 69.1937 62.8437 69.1937 63.3687Z" stroke="#EBEBEB" stroke-width="2.5" stroke-miterlimit="10"/>
<path d="M62.6875 45.875C62.6875 44.75 61.8062 43.025 60.4937 41.6188C59.2937 40.325 57.7 39.3125 56.125 39.3125" stroke="#EBEBEB" stroke-width="2.5" stroke-linecap="round" stroke-linejoin="round"/>
<path d="M69.25 45.875C69.25 38.6188 63.3812 32.75 56.125 32.75" stroke="#EBEBEB" stroke-width="2.5" stroke-linecap="round" stroke-linejoin="round"/>
<defs>
<linearGradient id="paint0_linear_410_182" x1="3" y1="-2.14856e-06" x2="116" y2="103" gradientUnits="userSpaceOnUse">
<stop stop-color="#5F00D8"/>
<stop offset="1" stop-color="#3B0087"/>
</linearGradient>
</defs>
</svg>
