<svg width="56" height="63" viewBox="0 0 56 63" fill="none" xmlns="http://www.w3.org/2000/svg">
<path d="M3.65188 14.8923L25.8466 2.07639C27.1789 1.30799 28.818 1.3078 30.1507 2.07604C30.1508 2.07611 30.1509 2.07618 30.151 2.07625C30.1512 2.07631 30.1513 2.07637 30.1514 2.07644L52.3481 14.8925C53.6809 15.6624 54.5 17.082 54.5 18.6187L54.5 44.2503C54.5 45.7864 53.6811 47.2059 52.3476 47.9769L30.1513 60.7918C30.1511 60.7919 30.1509 60.792 30.1507 60.7921C28.8182 61.5604 27.1794 61.5603 25.8472 60.7921C25.8471 60.792 25.8469 60.7919 25.8467 60.7918L3.6523 47.9769C2.31883 47.2059 1.5 45.7865 1.5 44.2503L1.5 18.6185C1.5 17.082 2.31902 15.6623 3.65188 14.8923Z" fill="#FEFEFE" fill-opacity="0.92" stroke="#470898" stroke-width="3"/>
<path d="M22.0001 31.8627L33.2376 41.7502C33.3675 41.8651 33.525 41.9443 33.6948 41.98C33.8645 42.0157 34.0406 42.0066 34.2058 41.9537C34.371 41.9007 34.5195 41.8057 34.6369 41.678C34.7542 41.5503 34.8363 41.3942 34.8751 41.2252L39.5751 20.7002C39.6145 20.5234 39.6052 20.3393 39.5481 20.1674C39.4911 19.9955 39.3884 19.8424 39.2511 19.7243C39.1137 19.6062 38.9469 19.5277 38.7684 19.497C38.59 19.4663 38.4065 19.4847 38.2376 19.5502L15.1626 28.6127C14.2376 28.9752 14.3626 30.3252 15.3376 30.5252L22.0001 31.8627Z" stroke="#5902C7" stroke-width="2" stroke-linecap="round" stroke-linejoin="round"/>
<path d="M22 31.8628L39.0125 19.5753" stroke="#5902C7" stroke-width="2" stroke-linecap="round" stroke-linejoin="round"/>
<path d="M27.6125 36.7999L23.7125 40.6999C23.5734 40.8412 23.3954 40.9379 23.2011 40.9778C23.0069 41.0177 22.8052 40.9989 22.6216 40.9239C22.4381 40.8489 22.281 40.721 22.1703 40.5565C22.0596 40.3919 22.0003 40.1982 22 39.9999V31.8624" stroke="#5902C7" stroke-width="2" stroke-linecap="round" stroke-linejoin="round"/>
</svg>
